<?xml version="1.0" encoding="utf-8"?><!-- Uploaded to: SVG Repo, www.svgrepo.com, Generator: SVG Repo Mixer Tools -->
<svg fill="#000000" width="800px" height="800px" viewBox="-0.96 0 52.13 52.13" xmlns="http://www.w3.org/2000/svg">
  <path id="email_opened" data-name="email opened" d="M307.558,350.974v10.468h10.466Zm-15.306,33.07,4.375,3.6a1.893,1.893,0,0,0,2.235,0l4.248-3.506.368-.3,16.192-13.363V363.77H305.231V349.387H275.685v21l16.2,13.357Zm28.941-11.807-12.84,10.6-2.438,2.013L322.78,398.4V370.93Zm-38.042,7.319-8.991-7.413-1.589-1.309v27.554l16.883-13.636Zm17.193,9.886a4.216,4.216,0,0,1-5.193.005l-3.865-3.184-18.715,15.115a.155.155,0,0,0,.151.139h49.911a.158.158,0,0,0,.147-.136l-18.7-15.025Z" transform="translate(-272.571 -349.387)"/>
</svg>